<?xml version="1.0" standalone="no"?>
<!DOCTYPE svg PUBLIC "-//W3C//DTD SVG 20010904//EN"
 "http://www.w3.org/TR/2001/REC-SVG-20010904/DTD/svg10.dtd">
<svg version="1.0" xmlns="http://www.w3.org/2000/svg"
 width="1453.000000pt" height="173.000000pt" viewBox="0 0 1453.000000 173.000000"
 preserveAspectRatio="xMidYMid meet">

<g transform="translate(0.000000,173.000000) scale(0.100000,-0.100000)"
fill="#FFFFFF" stroke="none">
<path d="M1376 1595 c-52 -109 -68 -357 -64 -983 l3 -504 28 -24 c25 -21 38
-24 113 -24 78 0 87 2 111 26 28 28 28 28 3 249 -13 114 -12 444 1 507 30 140
119 214 207 171 52 -25 71 -66 83 -174 15 -135 -13 -404 -66 -637 -19 -82 -19
-85 10 -116 23 -24 30 -26 113 -26 142 0 148 9 178 285 19 173 22 526 5 615
-29 155 -75 244 -150 288 -39 23 -57 27 -121 27 -70 0 -81 -3 -153 -43 -66
-36 -81 -41 -94 -30 -20 16 -13 89 21 226 51 206 53 202 -104 202 l-108 0 -16
-35z"/>
<path d="M9746 1608 c-8 -13 -19 -43 -25 -68 -30 -136 -47 -744 -31 -1100 16
-372 20 -380 171 -380 84 0 91 2 114 26 29 32 29 21 10 116 -42 220 -63 618
-46 873 11 158 18 220 53 444 16 108 13 111 -129 111 -95 0 -104 -2 -117 -22z"/>
<path d="M10221 1613 c-109 -55 -88 -228 32 -258 75 -19 148 27 167 105 10 43
10 54 -7 87 -10 20 -30 45 -44 56 -37 27 -106 32 -148 10z"/>
<path d="M13154 1616 c-68 -30 -94 -110 -60 -189 35 -86 167 -101 229 -27 34
40 43 109 21 155 -30 64 -119 92 -190 61z"/>
<path d="M7887 1610 c-280 -71 -517 -515 -517 -970 0 -287 93 -477 273 -560
80 -37 161 -50 322 -50 169 0 244 13 332 55 175 86 263 271 263 555 0 493
-270 954 -571 975 -35 2 -81 0 -102 -5z m142 -345 c105 -54 208 -266 231 -477
31 -279 -57 -398 -295 -398 -146 0 -228 41 -273 138 -25 52 -27 67 -26 172 1
80 8 142 23 205 38 156 125 307 205 356 37 23 96 24 135 4z"/>
<path d="M191 1564 c-55 -70 -72 -227 -78 -719 -7 -540 9 -721 65 -765 23 -19
41 -20 286 -20 287 0 354 9 451 56 104 51 191 168 231 311 25 91 30 338 9 464
-51 306 -198 534 -417 645 -88 44 -149 54 -344 54 l-183 0 -20 -26z m427 -253
c96 -49 190 -193 232 -356 26 -97 30 -281 10 -367 -38 -163 -159 -272 -283
-255 -78 11 -128 68 -158 183 -16 62 -21 123 -26 289 -8 303 17 452 85 505 32
26 91 26 140 1z"/>
<path d="M3280 1287 c-25 -9 -41 -23 -55 -52 -19 -38 -20 -60 -20 -545 0 -638
-3 -622 134 -628 101 -5 122 0 143 35 15 26 15 34 -4 113 -24 105 -37 479 -19
575 23 128 87 207 167 207 48 0 84 -27 114 -88 24 -47 25 -57 25 -224 0 -143
-5 -211 -30 -372 l-29 -197 24 -26 c22 -23 30 -25 111 -25 154 0 158 11 159
450 1 387 11 442 85 479 22 11 35 11 68 1 63 -18 102 -64 128 -149 20 -69 21
-86 16 -260 -4 -127 -13 -220 -27 -291 -36 -180 -36 -175 -7 -204 24 -24 33
-26 112 -26 81 0 88 2 114 28 47 46 56 123 56 477 0 264 -3 321 -18 387 -38
160 -108 253 -213 284 -81 23 -145 14 -246 -35 -46 -23 -91 -41 -99 -41 -9 0
-33 11 -53 25 -66 45 -114 65 -155 65 -53 0 -147 -31 -195 -64 -58 -39 -71
-32 -71 37 0 40 -5 61 -15 67 -21 14 -158 11 -200 -3z"/>
<path d="M8790 1287 c-34 -17 -58 -70 -78 -169 -13 -68 -16 -162 -16 -518 -1
-554 -5 -540 159 -540 85 0 93 3 116 37 14 20 13 35 -4 150 -14 94 -20 186
-21 343 -1 212 -1 216 25 270 31 66 97 130 137 131 75 3 106 -15 135 -79 43
-92 23 -438 -38 -679 -14 -54 -25 -103 -25 -109 0 -6 11 -23 25 -38 22 -24 30
-26 110 -26 145 0 162 22 185 235 17 168 15 597 -4 685 -40 186 -141 284 -274
266 -24 -3 -74 -19 -112 -36 -97 -43 -104 -41 -97 20 5 42 3 51 -13 60 -26 14
-180 12 -210 -3z"/>
<path d="M10710 1287 c-34 -17 -58 -70 -78 -169 -13 -68 -16 -162 -16 -518 -1
-554 -5 -540 159 -540 85 0 93 3 116 37 14 20 13 35 -4 150 -14 94 -20 186
-21 343 -1 212 -1 216 25 270 31 66 97 130 137 131 75 3 106 -15 135 -79 43
-92 23 -438 -38 -679 -14 -54 -25 -103 -25 -109 0 -6 11 -23 25 -38 22 -24 30
-26 110 -26 145 0 162 22 185 235 17 168 15 597 -4 685 -40 186 -141 284 -274
266 -24 -3 -74 -19 -112 -36 -97 -43 -104 -41 -97 20 5 42 3 51 -13 60 -26 14
-180 12 -210 -3z"/>
<path d="M13618 1280 c-70 -54 -83 -166 -83 -695 0 -544 -6 -525 166 -525 74
0 82 2 105 27 16 17 23 35 20 48 -3 11 -14 97 -26 190 -29 224 -25 440 9 527
26 67 96 137 138 139 76 3 107 -15 136 -79 42 -91 22 -433 -39 -674 -30 -119
-30 -123 1 -153 22 -23 32 -25 110 -25 167 0 177 20 196 425 20 423 -12 610
-119 707 -74 67 -153 74 -272 24 -36 -15 -76 -30 -89 -33 -24 -6 -24 -5 -18
45 8 66 -2 72 -121 72 -74 0 -94 -3 -114 -20z"/>
<path d="M2497 1270 c-102 -18 -194 -88 -217 -168 -17 -55 2 -141 40 -182 41
-44 75 -39 113 18 50 75 125 104 208 82 56 -15 109 -68 109 -109 0 -36 -12
-44 -102 -65 -182 -42 -331 -161 -384 -306 -21 -58 -21 -179 -1 -251 29 -98
113 -170 242 -206 67 -19 321 -28 415 -15 62 9 79 16 98 38 22 25 23 33 18
108 -4 45 -11 209 -16 366 -12 348 -21 425 -62 503 -81 151 -254 221 -461 187z
m255 -671 l31 -30 -5 -105 c-6 -132 -18 -149 -106 -149 -109 0 -179 62 -169
151 6 58 44 106 109 138 69 35 102 34 140 -5z"/>
<path d="M4835 1271 c-50 -12 -71 -28 -91 -68 -18 -36 -19 -69 -19 -548 0
-548 1 -561 51 -584 14 -6 61 -11 105 -11 74 0 82 2 104 26 29 32 28 19 10
124 -8 47 -15 106 -15 133 0 41 3 47 21 47 12 0 44 -20 70 -45 56 -53 94 -58
162 -24 250 127 402 522 289 752 -51 103 -148 165 -300 193 -80 14 -335 17
-387 5z m396 -271 c21 -11 50 -36 66 -57 24 -32 28 -45 28 -102 0 -54 -6 -76
-30 -119 -48 -89 -132 -148 -225 -159 -43 -5 -51 -3 -74 20 -25 25 -26 30 -26
146 0 187 22 255 94 287 39 18 115 10 167 -16z"/>
<path d="M7095 1261 c-22 -10 -59 -34 -83 -54 -55 -47 -82 -55 -99 -31 -7 10
-13 25 -13 34 0 33 -22 40 -127 40 -103 0 -104 0 -115 -27 -14 -33 -12 -881 2
-1009 15 -137 32 -154 156 -154 84 0 107 9 127 46 11 22 11 38 -4 106 -29 132
-41 283 -37 453 3 149 5 164 30 217 30 65 73 98 127 98 29 0 43 -9 81 -50 25
-27 54 -50 63 -50 33 0 96 69 112 123 29 98 17 168 -38 225 -50 52 -115 64
-182 33z"/>
<path d="M11945 1267 c-191 -49 -328 -219 -375 -467 -16 -84 -13 -284 5 -375
21 -106 76 -217 137 -278 119 -119 332 -150 495 -71 68 33 146 118 170 186 23
67 26 236 4 262 -13 15 -17 11 -43 -43 -55 -114 -143 -166 -284 -166 -59 0
-80 5 -129 30 -37 19 -66 42 -78 62 -17 30 -17 33 -1 58 21 33 87 66 217 112
130 45 189 75 242 124 54 50 85 122 92 214 13 167 -56 278 -206 336 -67 25
-181 32 -246 16z m157 -263 c36 -19 70 -63 66 -88 -6 -45 -187 -129 -308 -143
-42 -5 -48 -3 -53 16 -16 64 87 211 161 227 15 3 32 7 37 9 15 5 67 -6 97 -21z"/>
<path d="M5715 1226 c-72 -109 -88 -747 -24 -971 33 -118 103 -195 192 -215
70 -16 128 -3 207 46 30 19 59 34 63 34 4 0 28 -19 52 -41 51 -47 107 -60 169
-39 75 24 92 92 107 417 17 369 -7 725 -53 780 -12 15 -214 18 -238 3 -15 -9
-10 -71 26 -290 22 -134 22 -375 0 -467 -28 -115 -77 -171 -158 -180 -40 -5
-49 -2 -81 26 -62 55 -72 103 -72 351 0 175 4 231 19 300 45 201 53 245 43
258 -7 8 -44 12 -123 12 -108 0 -114 -1 -129 -24z"/>
<path d="M10165 1226 c-29 -44 -36 -184 -33 -633 3 -383 5 -443 20 -475 9 -20
25 -41 36 -47 12 -6 62 -11 112 -11 84 0 93 2 117 26 29 29 29 45 -1 232 -30
190 -39 362 -33 644 5 241 4 277 -10 282 -8 3 -55 6 -104 6 -82 0 -90 -2 -104
-24z"/>
<path d="M13090 1230 c-22 -42 -29 -180 -30 -585 0 -462 5 -528 45 -562 23
-20 37 -23 121 -23 89 0 97 2 121 26 29 29 29 48 -1 239 -30 191 -39 366 -33
642 5 238 4 272 -9 277 -9 3 -58 6 -109 6 -84 0 -95 -2 -105 -20z"/>
<path d="M12635 446 c-34 -15 -92 -76 -106 -113 -12 -32 -11 -109 2 -156 11
-40 58 -100 93 -119 39 -21 90 -27 141 -16 153 33 210 256 93 365 -53 50 -157
68 -223 39z"/>
</g>
</svg>
