<?xml version="1.0" standalone="no"?>
<!DOCTYPE svg PUBLIC "-//W3C//DTD SVG 20010904//EN"
 "http://www.w3.org/TR/2001/REC-SVG-20010904/DTD/svg10.dtd">
<svg version="1.0" xmlns="http://www.w3.org/2000/svg"
 width="1510.000000pt" height="1080.000000pt" viewBox="0 0 1510.000000 1080.000000"
 preserveAspectRatio="xMidYMid meet">

<g transform="translate(0.000000,1080.000000) scale(0.100000,-0.100000)"
fill="#000000" stroke="none">
<path d="M9652 5718 c3 -417 7 -552 17 -583 7 -22 32 -59 55 -81 53 -54 127
-72 224 -56 35 6 66 12 67 14 2 2 -4 45 -13 96 -14 83 -17 92 -37 92 -12 0
-29 8 -38 18 -15 17 -17 68 -17 530 l0 512 -130 0 -131 0 3 -542z"/>
<path d="M4735 6221 c-59 -15 -104 -43 -152 -94 -42 -46 -793 -1082 -801
-1107 -2 -6 85 -10 236 -10 l240 0 252 353 c139 193 261 360 270 371 17 17 20
14 86 -80 37 -55 98 -143 136 -197 37 -54 68 -100 68 -102 0 -3 -96 -5 -212
-5 l-213 0 -122 -168 -122 -167 349 -3 c192 -1 508 -1 703 0 l354 3 -384 550
c-211 302 -396 562 -410 578 -61 62 -194 100 -278 78z"/>
<path d="M6325 5906 c-109 -22 -255 -83 -255 -107 0 -7 19 -46 41 -88 l41 -76
71 34 c131 64 255 53 291 -24 25 -51 21 -63 -21 -70 -271 -42 -378 -91 -436
-200 -17 -31 -22 -57 -22 -120 0 -93 20 -140 83 -197 50 -45 100 -62 182 -62
71 0 149 29 216 80 29 23 37 25 45 13 5 -8 9 -22 9 -31 0 -45 7 -48 117 -48
l105 0 -4 313 c-4 291 -6 317 -27 381 -55 167 -222 244 -436 202z m205 -560
l0 -84 -41 -30 c-49 -36 -105 -48 -154 -32 -41 13 -55 35 -55 82 1 61 47 98
161 127 41 11 77 20 82 20 4 1 7 -37 7 -83z"/>
<path d="M7320 5909 c-136 -24 -256 -112 -315 -233 -90 -183 -60 -416 71 -556
121 -129 338 -163 511 -80 101 49 99 43 42 137 l-50 83 -49 -26 c-117 -61
-224 -31 -283 80 -18 34 -22 57 -22 141 0 83 4 107 22 140 56 105 167 144 260
91 l42 -24 59 81 60 82 -31 22 c-74 55 -208 81 -317 62z"/>
<path d="M8110 5909 c-136 -24 -256 -112 -315 -233 -90 -183 -60 -416 71 -556
121 -129 338 -163 511 -80 101 49 99 43 42 137 l-50 83 -49 -26 c-117 -61
-224 -31 -283 80 -18 34 -22 57 -22 141 0 83 4 107 22 140 56 105 167 144 260
91 l43 -25 59 82 59 82 -31 22 c-74 55 -208 81 -317 62z"/>
<path d="M11542 5910 c-52 -11 -129 -52 -181 -97 -44 -37 -43 -37 -56 45 l-7
42 -104 0 -104 0 0 -445 0 -445 130 0 130 0 0 304 0 304 33 28 c86 73 187 72
222 -1 12 -28 15 -83 15 -334 l0 -301 131 0 130 0 -3 343 c-4 368 -6 382 -62
467 -46 70 -171 111 -274 90z"/>
<path d="M12430 5909 c-136 -24 -256 -112 -315 -233 -90 -183 -60 -416 71
-556 121 -129 338 -163 511 -80 101 49 99 43 42 137 l-50 83 -49 -26 c-117
-61 -224 -31 -283 80 -18 34 -22 57 -22 141 0 83 4 107 22 140 56 105 167 144
260 91 l43 -25 59 82 59 82 -31 22 c-74 55 -208 81 -317 62z"/>
<path d="M13190 5909 c-77 -15 -165 -65 -218 -124 -84 -92 -122 -193 -122
-330 0 -142 37 -241 123 -332 135 -143 366 -169 572 -66 27 14 52 27 54 29 3
2 -13 38 -35 79 -27 53 -43 74 -54 71 -8 -3 -40 -14 -70 -25 -129 -47 -255
-14 -310 83 -53 91 -67 86 234 86 l264 0 7 63 c21 196 -75 392 -218 445 -64
24 -167 34 -227 21z m176 -220 c31 -28 54 -77 54 -114 l0 -25 -161 0 -161 0 6
32 c9 47 49 102 87 122 50 25 140 17 175 -15z"/>
<path d="M8622 5558 c4 -370 6 -383 63 -470 36 -54 120 -92 204 -92 96 0 161
26 231 90 l58 55 6 -28 c3 -15 8 -45 12 -65 l6 -38 104 0 104 0 0 445 0 445
-130 0 -130 0 0 -298 0 -298 -37 -36 c-84 -81 -183 -78 -219 8 -11 26 -14 99
-14 329 l0 295 -131 0 -130 0 3 -342z"/>
<path d="M10070 5891 c0 -5 75 -199 166 -431 181 -459 180 -456 132 -526 -30
-44 -78 -66 -143 -65 l-52 0 -17 -80 c-10 -45 -20 -87 -22 -94 -8 -19 97 -39
160 -31 138 18 230 86 296 221 18 39 106 282 195 540 l160 470 -119 3 c-65 1
-121 1 -123 -2 -7 -7 -77 -256 -119 -421 -52 -208 -55 -217 -59 -213 -2 2 -24
73 -49 158 -25 85 -69 227 -99 315 l-54 160 -126 3 c-75 1 -127 -1 -127 -7z"/>
</g>
</svg>
